<svg xmlns="http://www.w3.org/2000/svg" width="344" height="344" viewBox="0 0 43 43" role="img" aria-labelledby="title" shape-rendering="crispEdges">
  <title id="title">Alipay support QR code</title>
  <rect width="43" height="43" fill="#fff"/>
  <path d="M5 5h1v1h-1zM6 5h1v1h-1zM7 5h1v1h-1zM8 5h1v1h-1zM9 5h1v1h-1zM10 5h1v1h-1zM11 5h1v1h-1zM14 5h1v1h-1zM15 5h1v1h-1zM17 5h1v1h-1zM19 5h1v1h-1zM20 5h1v1h-1zM21 5h1v1h-1zM23 5h1v1h-1zM24 5h1v1h-1zM28 5h1v1h-1zM31 5h1v1h-1zM32 5h1v1h-1zM33 5h1v1h-1zM34 5h1v1h-1zM35 5h1v1h-1zM36 5h1v1h-1zM37 5h1v1h-1zM5 6h1v1h-1zM11 6h1v1h-1zM14 6h1v1h-1zM17 6h1v1h-1zM21 6h1v1h-1zM23 6h1v1h-1zM25 6h1v1h-1zM26 6h1v1h-1zM29 6h1v1h-1zM31 6h1v1h-1zM37 6h1v1h-1zM5 7h1v1h-1zM7 7h1v1h-1zM8 7h1v1h-1zM9 7h1v1h-1zM11 7h1v1h-1zM13 7h1v1h-1zM14 7h1v1h-1zM15 7h1v1h-1zM19 7h1v1h-1zM20 7h1v1h-1zM25 7h1v1h-1zM26 7h1v1h-1zM31 7h1v1h-1zM33 7h1v1h-1zM34 7h1v1h-1zM35 7h1v1h-1zM37 7h1v1h-1zM5 8h1v1h-1zM7 8h1v1h-1zM8 8h1v1h-1zM9 8h1v1h-1zM11 8h1v1h-1zM13 8h1v1h-1zM20 8h1v1h-1zM23 8h1v1h-1zM24 8h1v1h-1zM26 8h1v1h-1zM28 8h1v1h-1zM29 8h1v1h-1zM31 8h1v1h-1zM33 8h1v1h-1zM34 8h1v1h-1zM35 8h1v1h-1zM37 8h1v1h-1zM5 9h1v1h-1zM7 9h1v1h-1zM8 9h1v1h-1zM9 9h1v1h-1zM11 9h1v1h-1zM13 9h1v1h-1zM14 9h1v1h-1zM15 9h1v1h-1zM16 9h1v1h-1zM17 9h1v1h-1zM19 9h1v1h-1zM20 9h1v1h-1zM21 9h1v1h-1zM22 9h1v1h-1zM25 9h1v1h-1zM29 9h1v1h-1zM31 9h1v1h-1zM33 9h1v1h-1zM34 9h1v1h-1zM35 9h1v1h-1zM37 9h1v1h-1zM5 10h1v1h-1zM11 10h1v1h-1zM13 10h1v1h-1zM16 10h1v1h-1zM17 10h1v1h-1zM22 10h1v1h-1zM24 10h1v1h-1zM26 10h1v1h-1zM28 10h1v1h-1zM31 10h1v1h-1zM37 10h1v1h-1zM5 11h1v1h-1zM6 11h1v1h-1zM7 11h1v1h-1zM8 11h1v1h-1zM9 11h1v1h-1zM10 11h1v1h-1zM11 11h1v1h-1zM13 11h1v1h-1zM15 11h1v1h-1zM17 11h1v1h-1zM19 11h1v1h-1zM21 11h1v1h-1zM23 11h1v1h-1zM25 11h1v1h-1zM27 11h1v1h-1zM29 11h1v1h-1zM31 11h1v1h-1zM32 11h1v1h-1zM33 11h1v1h-1zM34 11h1v1h-1zM35 11h1v1h-1zM36 11h1v1h-1zM37 11h1v1h-1zM13 12h1v1h-1zM14 12h1v1h-1zM15 12h1v1h-1zM16 12h1v1h-1zM21 12h1v1h-1zM24 12h1v1h-1zM25 12h1v1h-1zM26 12h1v1h-1zM27 12h1v1h-1zM29 12h1v1h-1zM5 13h1v1h-1zM7 13h1v1h-1zM8 13h1v1h-1zM9 13h1v1h-1zM10 13h1v1h-1zM11 13h1v1h-1zM14 13h1v1h-1zM16 13h1v1h-1zM18 13h1v1h-1zM22 13h1v1h-1zM24 13h1v1h-1zM27 13h1v1h-1zM29 13h1v1h-1zM31 13h1v1h-1zM32 13h1v1h-1zM33 13h1v1h-1zM34 13h1v1h-1zM35 13h1v1h-1zM6 14h1v1h-1zM8 14h1v1h-1zM10 14h1v1h-1zM13 14h1v1h-1zM14 14h1v1h-1zM15 14h1v1h-1zM17 14h1v1h-1zM18 14h1v1h-1zM19 14h1v1h-1zM20 14h1v1h-1zM21 14h1v1h-1zM22 14h1v1h-1zM23 14h1v1h-1zM24 14h1v1h-1zM25 14h1v1h-1zM27 14h1v1h-1zM28 14h1v1h-1zM31 14h1v1h-1zM32 14h1v1h-1zM34 14h1v1h-1zM35 14h1v1h-1zM36 14h1v1h-1zM7 15h1v1h-1zM8 15h1v1h-1zM11 15h1v1h-1zM12 15h1v1h-1zM13 15h1v1h-1zM18 15h1v1h-1zM19 15h1v1h-1zM20 15h1v1h-1zM22 15h1v1h-1zM25 15h1v1h-1zM27 15h1v1h-1zM33 15h1v1h-1zM35 15h1v1h-1zM37 15h1v1h-1zM5 16h1v1h-1zM6 16h1v1h-1zM9 16h1v1h-1zM10 16h1v1h-1zM14 16h1v1h-1zM16 16h1v1h-1zM17 16h1v1h-1zM18 16h1v1h-1zM21 16h1v1h-1zM22 16h1v1h-1zM23 16h1v1h-1zM24 16h1v1h-1zM25 16h1v1h-1zM29 16h1v1h-1zM30 16h1v1h-1zM33 16h1v1h-1zM34 16h1v1h-1zM35 16h1v1h-1zM36 16h1v1h-1zM7 17h1v1h-1zM9 17h1v1h-1zM11 17h1v1h-1zM12 17h1v1h-1zM13 17h1v1h-1zM14 17h1v1h-1zM16 17h1v1h-1zM17 17h1v1h-1zM19 17h1v1h-1zM20 17h1v1h-1zM21 17h1v1h-1zM24 17h1v1h-1zM25 17h1v1h-1zM26 17h1v1h-1zM27 17h1v1h-1zM29 17h1v1h-1zM31 17h1v1h-1zM32 17h1v1h-1zM34 17h1v1h-1zM37 17h1v1h-1zM7 18h1v1h-1zM13 18h1v1h-1zM15 18h1v1h-1zM17 18h1v1h-1zM18 18h1v1h-1zM20 18h1v1h-1zM23 18h1v1h-1zM26 18h1v1h-1zM31 18h1v1h-1zM33 18h1v1h-1zM35 18h1v1h-1zM36 18h1v1h-1zM37 18h1v1h-1zM10 19h1v1h-1zM11 19h1v1h-1zM14 19h1v1h-1zM17 19h1v1h-1zM18 19h1v1h-1zM20 19h1v1h-1zM21 19h1v1h-1zM22 19h1v1h-1zM25 19h1v1h-1zM26 19h1v1h-1zM28 19h1v1h-1zM29 19h1v1h-1zM30 19h1v1h-1zM31 19h1v1h-1zM32 19h1v1h-1zM34 19h1v1h-1zM35 19h1v1h-1zM36 19h1v1h-1zM5 20h1v1h-1zM7 20h1v1h-1zM8 20h1v1h-1zM10 20h1v1h-1zM13 20h1v1h-1zM15 20h1v1h-1zM19 20h1v1h-1zM20 20h1v1h-1zM23 20h1v1h-1zM26 20h1v1h-1zM30 20h1v1h-1zM31 20h1v1h-1zM33 20h1v1h-1zM34 20h1v1h-1zM5 21h1v1h-1zM6 21h1v1h-1zM9 21h1v1h-1zM11 21h1v1h-1zM14 21h1v1h-1zM15 21h1v1h-1zM18 21h1v1h-1zM20 21h1v1h-1zM21 21h1v1h-1zM22 21h1v1h-1zM27 21h1v1h-1zM29 21h1v1h-1zM30 21h1v1h-1zM32 21h1v1h-1zM33 21h1v1h-1zM37 21h1v1h-1zM7 22h1v1h-1zM12 22h1v1h-1zM14 22h1v1h-1zM16 22h1v1h-1zM18 22h1v1h-1zM19 22h1v1h-1zM21 22h1v1h-1zM23 22h1v1h-1zM24 22h1v1h-1zM25 22h1v1h-1zM26 22h1v1h-1zM28 22h1v1h-1zM30 22h1v1h-1zM31 22h1v1h-1zM32 22h1v1h-1zM34 22h1v1h-1zM35 22h1v1h-1zM36 22h1v1h-1zM37 22h1v1h-1zM11 23h1v1h-1zM13 23h1v1h-1zM14 23h1v1h-1zM15 23h1v1h-1zM19 23h1v1h-1zM20 23h1v1h-1zM23 23h1v1h-1zM25 23h1v1h-1zM26 23h1v1h-1zM29 23h1v1h-1zM30 23h1v1h-1zM32 23h1v1h-1zM33 23h1v1h-1zM35 23h1v1h-1zM37 23h1v1h-1zM8 24h1v1h-1zM9 24h1v1h-1zM10 24h1v1h-1zM12 24h1v1h-1zM13 24h1v1h-1zM14 24h1v1h-1zM19 24h1v1h-1zM20 24h1v1h-1zM24 24h1v1h-1zM26 24h1v1h-1zM27 24h1v1h-1zM28 24h1v1h-1zM30 24h1v1h-1zM32 24h1v1h-1zM33 24h1v1h-1zM34 24h1v1h-1zM35 24h1v1h-1zM36 24h1v1h-1zM10 25h1v1h-1zM11 25h1v1h-1zM14 25h1v1h-1zM16 25h1v1h-1zM17 25h1v1h-1zM18 25h1v1h-1zM19 25h1v1h-1zM23 25h1v1h-1zM26 25h1v1h-1zM28 25h1v1h-1zM30 25h1v1h-1zM31 25h1v1h-1zM32 25h1v1h-1zM33 25h1v1h-1zM34 25h1v1h-1zM36 25h1v1h-1zM5 26h1v1h-1zM8 26h1v1h-1zM10 26h1v1h-1zM12 26h1v1h-1zM13 26h1v1h-1zM14 26h1v1h-1zM17 26h1v1h-1zM19 26h1v1h-1zM20 26h1v1h-1zM21 26h1v1h-1zM22 26h1v1h-1zM25 26h1v1h-1zM26 26h1v1h-1zM27 26h1v1h-1zM29 26h1v1h-1zM30 26h1v1h-1zM32 26h1v1h-1zM33 26h1v1h-1zM35 26h1v1h-1zM37 26h1v1h-1zM5 27h1v1h-1zM7 27h1v1h-1zM9 27h1v1h-1zM10 27h1v1h-1zM11 27h1v1h-1zM12 27h1v1h-1zM14 27h1v1h-1zM16 27h1v1h-1zM17 27h1v1h-1zM18 27h1v1h-1zM19 27h1v1h-1zM22 27h1v1h-1zM23 27h1v1h-1zM24 27h1v1h-1zM26 27h1v1h-1zM28 27h1v1h-1zM34 27h1v1h-1zM35 27h1v1h-1zM36 27h1v1h-1zM5 28h1v1h-1zM7 28h1v1h-1zM8 28h1v1h-1zM10 28h1v1h-1zM12 28h1v1h-1zM13 28h1v1h-1zM14 28h1v1h-1zM15 28h1v1h-1zM18 28h1v1h-1zM21 28h1v1h-1zM24 28h1v1h-1zM25 28h1v1h-1zM26 28h1v1h-1zM27 28h1v1h-1zM29 28h1v1h-1zM30 28h1v1h-1zM36 28h1v1h-1zM5 29h1v1h-1zM7 29h1v1h-1zM11 29h1v1h-1zM12 29h1v1h-1zM13 29h1v1h-1zM15 29h1v1h-1zM16 29h1v1h-1zM17 29h1v1h-1zM21 29h1v1h-1zM22 29h1v1h-1zM24 29h1v1h-1zM27 29h1v1h-1zM29 29h1v1h-1zM30 29h1v1h-1zM31 29h1v1h-1zM32 29h1v1h-1zM33 29h1v1h-1zM35 29h1v1h-1zM37 29h1v1h-1zM13 30h1v1h-1zM15 30h1v1h-1zM17 30h1v1h-1zM18 30h1v1h-1zM19 30h1v1h-1zM20 30h1v1h-1zM22 30h1v1h-1zM24 30h1v1h-1zM25 30h1v1h-1zM27 30h1v1h-1zM29 30h1v1h-1zM33 30h1v1h-1zM35 30h1v1h-1zM5 31h1v1h-1zM6 31h1v1h-1zM7 31h1v1h-1zM8 31h1v1h-1zM9 31h1v1h-1zM10 31h1v1h-1zM11 31h1v1h-1zM14 31h1v1h-1zM15 31h1v1h-1zM16 31h1v1h-1zM17 31h1v1h-1zM18 31h1v1h-1zM19 31h1v1h-1zM20 31h1v1h-1zM22 31h1v1h-1zM27 31h1v1h-1zM28 31h1v1h-1zM29 31h1v1h-1zM31 31h1v1h-1zM33 31h1v1h-1zM35 31h1v1h-1zM37 31h1v1h-1zM5 32h1v1h-1zM11 32h1v1h-1zM13 32h1v1h-1zM18 32h1v1h-1zM19 32h1v1h-1zM20 32h1v1h-1zM22 32h1v1h-1zM23 32h1v1h-1zM24 32h1v1h-1zM25 32h1v1h-1zM29 32h1v1h-1zM33 32h1v1h-1zM34 32h1v1h-1zM35 32h1v1h-1zM36 32h1v1h-1zM5 33h1v1h-1zM7 33h1v1h-1zM8 33h1v1h-1zM9 33h1v1h-1zM11 33h1v1h-1zM13 33h1v1h-1zM16 33h1v1h-1zM17 33h1v1h-1zM20 33h1v1h-1zM21 33h1v1h-1zM24 33h1v1h-1zM25 33h1v1h-1zM26 33h1v1h-1zM27 33h1v1h-1zM29 33h1v1h-1zM30 33h1v1h-1zM31 33h1v1h-1zM32 33h1v1h-1zM33 33h1v1h-1zM34 33h1v1h-1zM37 33h1v1h-1zM5 34h1v1h-1zM7 34h1v1h-1zM8 34h1v1h-1zM9 34h1v1h-1zM11 34h1v1h-1zM13 34h1v1h-1zM14 34h1v1h-1zM16 34h1v1h-1zM20 34h1v1h-1zM22 34h1v1h-1zM23 34h1v1h-1zM30 34h1v1h-1zM33 34h1v1h-1zM34 34h1v1h-1zM36 34h1v1h-1zM5 35h1v1h-1zM7 35h1v1h-1zM8 35h1v1h-1zM9 35h1v1h-1zM11 35h1v1h-1zM13 35h1v1h-1zM14 35h1v1h-1zM17 35h1v1h-1zM19 35h1v1h-1zM20 35h1v1h-1zM21 35h1v1h-1zM23 35h1v1h-1zM25 35h1v1h-1zM26 35h1v1h-1zM29 35h1v1h-1zM30 35h1v1h-1zM31 35h1v1h-1zM32 35h1v1h-1zM34 35h1v1h-1zM35 35h1v1h-1zM5 36h1v1h-1zM11 36h1v1h-1zM16 36h1v1h-1zM18 36h1v1h-1zM20 36h1v1h-1zM23 36h1v1h-1zM26 36h1v1h-1zM27 36h1v1h-1zM28 36h1v1h-1zM29 36h1v1h-1zM30 36h1v1h-1zM31 36h1v1h-1zM33 36h1v1h-1zM5 37h1v1h-1zM6 37h1v1h-1zM7 37h1v1h-1zM8 37h1v1h-1zM9 37h1v1h-1zM10 37h1v1h-1zM11 37h1v1h-1zM13 37h1v1h-1zM15 37h1v1h-1zM17 37h1v1h-1zM19 37h1v1h-1zM20 37h1v1h-1zM21 37h1v1h-1zM23 37h1v1h-1zM28 37h1v1h-1zM30 37h1v1h-1zM32 37h1v1h-1zM34 37h1v1h-1zM35 37h1v1h-1zM36 37h1v1h-1z" fill="#000"/>
</svg>
